<?xml version="1.0" encoding="UTF-8" standalone="no"?><svg xmlns="http://www.w3.org/2000/svg" xmlns:xlink="http://www.w3.org/1999/xlink" contentStyleType="text/css" height="207px" preserveAspectRatio="none" style="width:124px;height:207px;background:#FFFFFF;" version="1.1" viewBox="0 0 124 207" width="124px" zoomAndPan="magnify"><defs/><g><rect height="26.2969" id="_title" style="stroke:#00000000;stroke-width:1.0;fill:none;" width="106" x="5" y="5"/><text fill="#000000" font-family="sans-serif" font-size="14" font-weight="bold" lengthAdjust="spacing" textLength="96" x="10" y="22.9951">Dependency</text><!--MD5=[4f36ae6f362740b85739276b7a780bf2]
class dad--><g id="elem_dad"><rect codeLine="3" fill="#F1F1F1" height="48" id="dad" rx="2.5" ry="2.5" style="stroke:#181818;stroke-width:0.5;" width="58" x="36" y="44.2969"/><ellipse cx="51" cy="60.2969" fill="#ADD1B2" rx="11" ry="11" style="stroke:#181818;stroke-width:1.0;"/><path d="M53.3438,55.9688 C52.4063,55.5313 51.8125,55.3906 50.9375,55.3906 C48.3125,55.3906 46.3125,57.4688 46.3125,60.1875 L46.3125,61.3125 C46.3125,63.8906 48.4219,65.7813 51.3125,65.7813 C52.5313,65.7813 53.6875,65.4844 54.4375,64.9375 C55.0156,64.5313 55.3438,64.0781 55.3438,63.6875 C55.3438,63.2344 54.9531,62.8438 54.4844,62.8438 C54.2656,62.8438 54.0625,62.9219 53.875,63.1094 C53.4219,63.5938 53.4219,63.5938 53.2344,63.6875 C52.8125,63.9531 52.125,64.0781 51.3594,64.0781 C49.3125,64.0781 48.0156,62.9844 48.0156,61.2813 L48.0156,60.1875 C48.0156,58.4063 49.2656,57.0938 51,57.0938 C51.5781,57.0938 52.1875,57.25 52.6563,57.5 C53.1406,57.7813 53.3125,58 53.4063,58.4063 C53.4688,58.8125 53.5,58.9375 53.6406,59.0625 C53.7813,59.2031 54.0156,59.3125 54.2344,59.3125 C54.5,59.3125 54.7656,59.1719 54.9375,58.9531 C55.0469,58.7969 55.0781,58.6094 55.0781,58.1875 L55.0781,56.7656 C55.0781,56.3281 55.0625,56.2031 54.9688,56.0469 C54.8125,55.7813 54.5313,55.6406 54.2344,55.6406 C53.9375,55.6406 53.7344,55.7344 53.5156,56.0469 L53.3438,55.9688 Z " fill="#000000"/><text fill="#000000" font-family="sans-serif" font-size="14" lengthAdjust="spacing" textLength="26" x="65" y="65.1436">dad</text><line style="stroke:#181818;stroke-width:0.5;" x1="37" x2="93" y1="76.2969" y2="76.2969"/><line style="stroke:#181818;stroke-width:0.5;" x1="37" x2="93" y1="84.2969" y2="84.2969"/></g><!--MD5=[06dbe90d0bd82e7414900024450677aa]
class son--><g id="elem_son"><rect codeLine="4" fill="#F1F1F1" height="48" id="son" rx="2.5" ry="2.5" style="stroke:#181818;stroke-width:0.5;" width="57" x="36.5" y="152.2969"/><ellipse cx="51.5" cy="168.2969" fill="#ADD1B2" rx="11" ry="11" style="stroke:#181818;stroke-width:1.0;"/><path d="M53.8438,163.9688 C52.9063,163.5313 52.3125,163.3906 51.4375,163.3906 C48.8125,163.3906 46.8125,165.4688 46.8125,168.1875 L46.8125,169.3125 C46.8125,171.8906 48.9219,173.7813 51.8125,173.7813 C53.0313,173.7813 54.1875,173.4844 54.9375,172.9375 C55.5156,172.5313 55.8438,172.0781 55.8438,171.6875 C55.8438,171.2344 55.4531,170.8438 54.9844,170.8438 C54.7656,170.8438 54.5625,170.9219 54.375,171.1094 C53.9219,171.5938 53.9219,171.5938 53.7344,171.6875 C53.3125,171.9531 52.625,172.0781 51.8594,172.0781 C49.8125,172.0781 48.5156,170.9844 48.5156,169.2813 L48.5156,168.1875 C48.5156,166.4063 49.7656,165.0938 51.5,165.0938 C52.0781,165.0938 52.6875,165.25 53.1563,165.5 C53.6406,165.7813 53.8125,166 53.9063,166.4063 C53.9688,166.8125 54,166.9375 54.1406,167.0625 C54.2813,167.2031 54.5156,167.3125 54.7344,167.3125 C55,167.3125 55.2656,167.1719 55.4375,166.9531 C55.5469,166.7969 55.5781,166.6094 55.5781,166.1875 L55.5781,164.7656 C55.5781,164.3281 55.5625,164.2031 55.4688,164.0469 C55.3125,163.7813 55.0313,163.6406 54.7344,163.6406 C54.4375,163.6406 54.2344,163.7344 54.0156,164.0469 L53.8438,163.9688 Z " fill="#000000"/><text fill="#000000" font-family="sans-serif" font-size="14" lengthAdjust="spacing" textLength="25" x="65.5" y="173.1436">son</text><line style="stroke:#181818;stroke-width:0.5;" x1="37.5" x2="92.5" y1="184.2969" y2="184.2969"/><line style="stroke:#181818;stroke-width:0.5;" x1="37.5" x2="92.5" y1="192.2969" y2="192.2969"/></g><!--MD5=[c078ab2a4d718ce3c026714f004dba11]
reverse link dad to son--><g id="link_dad_son"><path codeLine="6" d="M65,97.4279 C65,114.4507 65,135.9006 65,151.9753 " fill="none" id="dad-backto-son" style="stroke:#181818;stroke-width:1.0;stroke-dasharray:7.0,7.0;"/><polygon fill="#181818" points="65,92.2969,61,101.2969,65,97.2969,69,101.2969,65,92.2969" style="stroke:#181818;stroke-width:1.0;"/></g><!--MD5=[2e1b60a5c31c7572cfdbfd46de63a353]
@startuml
title Dependency

class dad
class son

dad <.. son
@enduml

PlantUML version 1.2022.7beta2(Unknown compile time)
(GPL source distribution)
Java Runtime: Java(TM) SE Runtime Environment
JVM: Java HotSpot(TM) 64-Bit Server VM
Default Encoding: UTF-8
Language: en
Country: US
--></g></svg>