<?xml version="1.0" encoding="UTF-8" standalone="no"?><svg xmlns="http://www.w3.org/2000/svg" xmlns:xlink="http://www.w3.org/1999/xlink" contentStyleType="text/css" height="99px" preserveAspectRatio="none" style="width:133px;height:99px;background:#FFFFFF;" version="1.1" viewBox="0 0 133 99" width="133px" zoomAndPan="magnify"><defs/><g><rect height="26.2969" id="_title" style="stroke:#00000000;stroke-width:1.0;fill:none;" width="106" x="6.5" y="5"/><text fill="#000000" font-family="sans-serif" font-size="14" font-weight="bold" lengthAdjust="spacing" textLength="96" x="11.5" y="22.9951">Association</text><!--MD5=[a46ee5ce0ceb0380cf446a08a056dce4]
class A--><g id="elem_A"><rect codeLine="3" fill="#F1F1F1" height="48" id="A" rx="2.5" ry="2.5" style="stroke:#181818;stroke-width:0.5;" width="42" x="7" y="44.2969"/><ellipse cx="22" cy="60.2969" fill="#ADD1B2" rx="11" ry="11" style="stroke:#181818;stroke-width:1.0;"/><path d="M24.3438,55.9688 C23.4063,55.5313 22.8125,55.3906 21.9375,55.3906 C19.3125,55.3906 17.3125,57.4688 17.3125,60.1875 L17.3125,61.3125 C17.3125,63.8906 19.4219,65.7813 22.3125,65.7813 C23.5313,65.7813 24.6875,65.4844 25.4375,64.9375 C26.0156,64.5313 26.3438,64.0781 26.3438,63.6875 C26.3438,63.2344 25.9531,62.8438 25.4844,62.8438 C25.2656,62.8438 25.0625,62.9219 24.875,63.1094 C24.4219,63.5938 24.4219,63.5938 24.2344,63.6875 C23.8125,63.9531 23.125,64.0781 22.3594,64.0781 C20.3125,64.0781 19.0156,62.9844 19.0156,61.2813 L19.0156,60.1875 C19.0156,58.4063 20.2656,57.0938 22,57.0938 C22.5781,57.0938 23.1875,57.25 23.6563,57.5 C24.1406,57.7813 24.3125,58 24.4063,58.4063 C24.4688,58.8125 24.5,58.9375 24.6406,59.0625 C24.7813,59.2031 25.0156,59.3125 25.2344,59.3125 C25.5,59.3125 25.7656,59.1719 25.9375,58.9531 C26.0469,58.7969 26.0781,58.6094 26.0781,58.1875 L26.0781,56.7656 C26.0781,56.3281 26.0625,56.2031 25.9688,56.0469 C25.8125,55.7813 25.5313,55.6406 25.2344,55.6406 C24.9375,55.6406 24.7344,55.7344 24.5156,56.0469 L24.3438,55.9688 Z " fill="#000000"/><text fill="#000000" font-family="sans-serif" font-size="14" lengthAdjust="spacing" textLength="10" x="36" y="65.1436">A</text><line style="stroke:#181818;stroke-width:0.5;" x1="8" x2="48" y1="76.2969" y2="76.2969"/><line style="stroke:#181818;stroke-width:0.5;" x1="8" x2="48" y1="84.2969" y2="84.2969"/></g><!--MD5=[69c451c751c414e37549b782190fef46]
class B--><g id="elem_B"><rect codeLine="4" fill="#F1F1F1" height="48" id="B" rx="2.5" ry="2.5" style="stroke:#181818;stroke-width:0.5;" width="42" x="84" y="44.2969"/><ellipse cx="99" cy="60.2969" fill="#ADD1B2" rx="11" ry="11" style="stroke:#181818;stroke-width:1.0;"/><path d="M101.3438,55.9688 C100.4063,55.5313 99.8125,55.3906 98.9375,55.3906 C96.3125,55.3906 94.3125,57.4688 94.3125,60.1875 L94.3125,61.3125 C94.3125,63.8906 96.4219,65.7813 99.3125,65.7813 C100.5313,65.7813 101.6875,65.4844 102.4375,64.9375 C103.0156,64.5313 103.3438,64.0781 103.3438,63.6875 C103.3438,63.2344 102.9531,62.8438 102.4844,62.8438 C102.2656,62.8438 102.0625,62.9219 101.875,63.1094 C101.4219,63.5938 101.4219,63.5938 101.2344,63.6875 C100.8125,63.9531 100.125,64.0781 99.3594,64.0781 C97.3125,64.0781 96.0156,62.9844 96.0156,61.2813 L96.0156,60.1875 C96.0156,58.4063 97.2656,57.0938 99,57.0938 C99.5781,57.0938 100.1875,57.25 100.6563,57.5 C101.1406,57.7813 101.3125,58 101.4063,58.4063 C101.4688,58.8125 101.5,58.9375 101.6406,59.0625 C101.7813,59.2031 102.0156,59.3125 102.2344,59.3125 C102.5,59.3125 102.7656,59.1719 102.9375,58.9531 C103.0469,58.7969 103.0781,58.6094 103.0781,58.1875 L103.0781,56.7656 C103.0781,56.3281 103.0625,56.2031 102.9688,56.0469 C102.8125,55.7813 102.5313,55.6406 102.2344,55.6406 C101.9375,55.6406 101.7344,55.7344 101.5156,56.0469 L101.3438,55.9688 Z " fill="#000000"/><text fill="#000000" font-family="sans-serif" font-size="14" lengthAdjust="spacing" textLength="10" x="113" y="65.1436">B</text><line style="stroke:#181818;stroke-width:0.5;" x1="85" x2="125" y1="76.2969" y2="76.2969"/><line style="stroke:#181818;stroke-width:0.5;" x1="85" x2="125" y1="84.2969" y2="84.2969"/></g><!--MD5=[5e2eec62a50b26b6b0db6c12e4ee289c]
link A to B--><g id="link_A_B"><path codeLine="6" d="M49.0547,68.2969 C60.5643,68.2969 72.0739,68.2969 83.5834,68.2969 " fill="none" id="A-B" style="stroke:#181818;stroke-width:1.0;"/><text fill="#000000" font-family="sans-serif" font-size="13" lengthAdjust="spacing" textLength="8" x="57.0409" y="62.9943">1</text><text fill="#000000" font-family="sans-serif" font-size="13" lengthAdjust="spacing" textLength="8" x="68.1173" y="63.1802">n</text></g><!--MD5=[dda4da9d57f3d26f1393d5454b7c7c9b]
@startuml
title Association

class A
class B

A "1"-"n" B
@enduml

PlantUML version 1.2022.7beta2(Unknown compile time)
(GPL source distribution)
Java Runtime: Java(TM) SE Runtime Environment
JVM: Java HotSpot(TM) 64-Bit Server VM
Default Encoding: UTF-8
Language: en
Country: US
--></g></svg>