<?xml version="1.0" encoding="UTF-8" standalone="no"?><svg xmlns="http://www.w3.org/2000/svg" xmlns:xlink="http://www.w3.org/1999/xlink" contentStyleType="text/css" height="207px" preserveAspectRatio="none" style="width:120px;height:207px;background:#FFFFFF;" version="1.1" viewBox="0 0 120 207" width="120px" zoomAndPan="magnify"><defs/><g><rect height="26.2969" id="_title" style="stroke:#00000000;stroke-width:1.0;fill:none;" width="102" x="5" y="5"/><text fill="#000000" font-family="sans-serif" font-size="14" font-weight="bold" lengthAdjust="spacing" textLength="92" x="10" y="22.9951">Realization</text><!--MD5=[d9847530b5dea828dbcbb50914b76f30]
class interface--><g id="elem_interface"><rect codeLine="3" fill="#F1F1F1" height="48" id="interface" rx="2.5" ry="2.5" style="stroke:#181818;stroke-width:0.5;" width="96" x="15" y="44.2969"/><ellipse cx="30" cy="60.2969" fill="#B4A7E5" rx="11" ry="11" style="stroke:#181818;stroke-width:1.0;"/><path d="M30.9531,57.0781 L32.6719,57.0781 C33.0625,57.0781 33.25,57.0469 33.375,56.9688 C33.6406,56.8125 33.7813,56.5313 33.7813,56.2344 C33.7813,55.9688 33.6719,55.7031 33.4375,55.5313 C33.2656,55.4219 33.125,55.3906 32.6719,55.3906 L27.5313,55.3906 C27.0938,55.3906 26.9688,55.4063 26.8125,55.5 C26.5625,55.6563 26.4063,55.9531 26.4063,56.2344 C26.4063,56.5156 26.5469,56.7656 26.7656,56.9375 C26.9219,57.0469 27.1094,57.0781 27.5313,57.0781 L29.25,57.0781 L29.25,63.5938 L27.5313,63.5938 C27.0938,63.5938 26.9688,63.6094 26.8125,63.7188 C26.5625,63.875 26.4063,64.1563 26.4063,64.4531 C26.4063,64.7031 26.5469,64.9688 26.7656,65.125 C26.9219,65.25 27.125,65.2969 27.5313,65.2969 L32.6719,65.2969 C33.4219,65.2969 33.7813,65.0156 33.7813,64.4531 C33.7813,64.1719 33.6719,63.9219 33.4375,63.75 C33.2656,63.625 33.125,63.5938 32.6719,63.5938 L30.9531,63.5938 L30.9531,57.0781 Z " fill="#000000"/><text fill="#000000" font-family="sans-serif" font-size="14" font-style="italic" lengthAdjust="spacing" textLength="64" x="44" y="65.1436">interface</text><line style="stroke:#181818;stroke-width:0.5;" x1="16" x2="110" y1="76.2969" y2="76.2969"/><line style="stroke:#181818;stroke-width:0.5;" x1="16" x2="110" y1="84.2969" y2="84.2969"/></g><!--MD5=[8bed4af61bb5859e46feba98fd8456ec]
class impl--><g id="elem_impl"><rect codeLine="4" fill="#F1F1F1" height="48" id="impl" rx="2.5" ry="2.5" style="stroke:#181818;stroke-width:0.5;" width="64" x="31" y="152.2969"/><ellipse cx="46" cy="168.2969" fill="#ADD1B2" rx="11" ry="11" style="stroke:#181818;stroke-width:1.0;"/><path d="M48.3438,163.9688 C47.4063,163.5313 46.8125,163.3906 45.9375,163.3906 C43.3125,163.3906 41.3125,165.4688 41.3125,168.1875 L41.3125,169.3125 C41.3125,171.8906 43.4219,173.7813 46.3125,173.7813 C47.5313,173.7813 48.6875,173.4844 49.4375,172.9375 C50.0156,172.5313 50.3438,172.0781 50.3438,171.6875 C50.3438,171.2344 49.9531,170.8438 49.4844,170.8438 C49.2656,170.8438 49.0625,170.9219 48.875,171.1094 C48.4219,171.5938 48.4219,171.5938 48.2344,171.6875 C47.8125,171.9531 47.125,172.0781 46.3594,172.0781 C44.3125,172.0781 43.0156,170.9844 43.0156,169.2813 L43.0156,168.1875 C43.0156,166.4063 44.2656,165.0938 46,165.0938 C46.5781,165.0938 47.1875,165.25 47.6563,165.5 C48.1406,165.7813 48.3125,166 48.4063,166.4063 C48.4688,166.8125 48.5,166.9375 48.6406,167.0625 C48.7813,167.2031 49.0156,167.3125 49.2344,167.3125 C49.5,167.3125 49.7656,167.1719 49.9375,166.9531 C50.0469,166.7969 50.0781,166.6094 50.0781,166.1875 L50.0781,164.7656 C50.0781,164.3281 50.0625,164.2031 49.9688,164.0469 C49.8125,163.7813 49.5313,163.6406 49.2344,163.6406 C48.9375,163.6406 48.7344,163.7344 48.5156,164.0469 L48.3438,163.9688 Z " fill="#000000"/><text fill="#000000" font-family="sans-serif" font-size="14" lengthAdjust="spacing" textLength="32" x="60" y="173.1436">impl</text><line style="stroke:#181818;stroke-width:0.5;" x1="32" x2="94" y1="184.2969" y2="184.2969"/><line style="stroke:#181818;stroke-width:0.5;" x1="32" x2="94" y1="192.2969" y2="192.2969"/></g><!--MD5=[5661a7c9243fe2e1503d69e39a57767f]
reverse link interface to impl--><g id="link_interface_impl"><path codeLine="6" d="M63,112.3205 C63,125.8761 63,140.335 63,151.9753 " fill="none" id="interface-backto-impl" style="stroke:#181818;stroke-width:1.0;stroke-dasharray:7.0,7.0;"/><polygon fill="none" points="56.0001,112.2974,63,92.2969,70.0001,112.2973,56.0001,112.2974" style="stroke:#181818;stroke-width:1.0;"/></g><!--MD5=[54db4bfac6d1952b55887504237549b4]
@startuml
title Realization

interface interface
class impl

interface <|.. impl
@enduml

PlantUML version 1.2022.7beta2(Unknown compile time)
(GPL source distribution)
Java Runtime: Java(TM) SE Runtime Environment
JVM: Java HotSpot(TM) 64-Bit Server VM
Default Encoding: UTF-8
Language: en
Country: US
--></g></svg>