<?xml version="1.0" encoding="UTF-8" standalone="no"?><svg xmlns="http://www.w3.org/2000/svg" xmlns:xlink="http://www.w3.org/1999/xlink" contentStyleType="text/css" height="207px" preserveAspectRatio="none" style="width:128px;height:207px;background:#FFFFFF;" version="1.1" viewBox="0 0 128 207" width="128px" zoomAndPan="magnify"><defs/><g><rect height="26.2969" id="_title" style="stroke:#00000000;stroke-width:1.0;fill:none;" width="110" x="5" y="5"/><text fill="#000000" font-family="sans-serif" font-size="14" font-weight="bold" lengthAdjust="spacing" textLength="100" x="10" y="22.9951">Aggregation</text><!--MD5=[4f36ae6f362740b85739276b7a780bf2]
class dad--><g id="elem_dad"><rect codeLine="3" fill="#F1F1F1" height="48" id="dad" rx="2.5" ry="2.5" style="stroke:#181818;stroke-width:0.5;" width="58" x="38" y="44.2969"/><ellipse cx="53" cy="60.2969" fill="#ADD1B2" rx="11" ry="11" style="stroke:#181818;stroke-width:1.0;"/><path d="M55.3438,55.9688 C54.4063,55.5313 53.8125,55.3906 52.9375,55.3906 C50.3125,55.3906 48.3125,57.4688 48.3125,60.1875 L48.3125,61.3125 C48.3125,63.8906 50.4219,65.7813 53.3125,65.7813 C54.5313,65.7813 55.6875,65.4844 56.4375,64.9375 C57.0156,64.5313 57.3438,64.0781 57.3438,63.6875 C57.3438,63.2344 56.9531,62.8438 56.4844,62.8438 C56.2656,62.8438 56.0625,62.9219 55.875,63.1094 C55.4219,63.5938 55.4219,63.5938 55.2344,63.6875 C54.8125,63.9531 54.125,64.0781 53.3594,64.0781 C51.3125,64.0781 50.0156,62.9844 50.0156,61.2813 L50.0156,60.1875 C50.0156,58.4063 51.2656,57.0938 53,57.0938 C53.5781,57.0938 54.1875,57.25 54.6563,57.5 C55.1406,57.7813 55.3125,58 55.4063,58.4063 C55.4688,58.8125 55.5,58.9375 55.6406,59.0625 C55.7813,59.2031 56.0156,59.3125 56.2344,59.3125 C56.5,59.3125 56.7656,59.1719 56.9375,58.9531 C57.0469,58.7969 57.0781,58.6094 57.0781,58.1875 L57.0781,56.7656 C57.0781,56.3281 57.0625,56.2031 56.9688,56.0469 C56.8125,55.7813 56.5313,55.6406 56.2344,55.6406 C55.9375,55.6406 55.7344,55.7344 55.5156,56.0469 L55.3438,55.9688 Z " fill="#000000"/><text fill="#000000" font-family="sans-serif" font-size="14" lengthAdjust="spacing" textLength="26" x="67" y="65.1436">dad</text><line style="stroke:#181818;stroke-width:0.5;" x1="39" x2="95" y1="76.2969" y2="76.2969"/><line style="stroke:#181818;stroke-width:0.5;" x1="39" x2="95" y1="84.2969" y2="84.2969"/></g><!--MD5=[06dbe90d0bd82e7414900024450677aa]
class son--><g id="elem_son"><rect codeLine="4" fill="#F1F1F1" height="48" id="son" rx="2.5" ry="2.5" style="stroke:#181818;stroke-width:0.5;" width="57" x="38.5" y="152.2969"/><ellipse cx="53.5" cy="168.2969" fill="#ADD1B2" rx="11" ry="11" style="stroke:#181818;stroke-width:1.0;"/><path d="M55.8438,163.9688 C54.9063,163.5313 54.3125,163.3906 53.4375,163.3906 C50.8125,163.3906 48.8125,165.4688 48.8125,168.1875 L48.8125,169.3125 C48.8125,171.8906 50.9219,173.7813 53.8125,173.7813 C55.0313,173.7813 56.1875,173.4844 56.9375,172.9375 C57.5156,172.5313 57.8438,172.0781 57.8438,171.6875 C57.8438,171.2344 57.4531,170.8438 56.9844,170.8438 C56.7656,170.8438 56.5625,170.9219 56.375,171.1094 C55.9219,171.5938 55.9219,171.5938 55.7344,171.6875 C55.3125,171.9531 54.625,172.0781 53.8594,172.0781 C51.8125,172.0781 50.5156,170.9844 50.5156,169.2813 L50.5156,168.1875 C50.5156,166.4063 51.7656,165.0938 53.5,165.0938 C54.0781,165.0938 54.6875,165.25 55.1563,165.5 C55.6406,165.7813 55.8125,166 55.9063,166.4063 C55.9688,166.8125 56,166.9375 56.1406,167.0625 C56.2813,167.2031 56.5156,167.3125 56.7344,167.3125 C57,167.3125 57.2656,167.1719 57.4375,166.9531 C57.5469,166.7969 57.5781,166.6094 57.5781,166.1875 L57.5781,164.7656 C57.5781,164.3281 57.5625,164.2031 57.4688,164.0469 C57.3125,163.7813 57.0313,163.6406 56.7344,163.6406 C56.4375,163.6406 56.2344,163.7344 56.0156,164.0469 L55.8438,163.9688 Z " fill="#000000"/><text fill="#000000" font-family="sans-serif" font-size="14" lengthAdjust="spacing" textLength="25" x="67.5" y="173.1436">son</text><line style="stroke:#181818;stroke-width:0.5;" x1="39.5" x2="94.5" y1="184.2969" y2="184.2969"/><line style="stroke:#181818;stroke-width:0.5;" x1="39.5" x2="94.5" y1="192.2969" y2="192.2969"/></g><!--MD5=[c078ab2a4d718ce3c026714f004dba11]
reverse link dad to son--><g id="link_dad_son"><path codeLine="6" d="M67,112.3205 C67,125.8761 67,140.335 67,151.9753 " fill="none" id="dad-backto-son" style="stroke:#181818;stroke-width:1.0;"/><polygon fill="none" points="60.0001,112.2974,67,92.2969,74.0001,112.2973,60.0001,112.2974" style="stroke:#181818;stroke-width:1.0;"/></g><!--MD5=[e40c2074d4a1524b03f62095620b472d]
@startuml
title Aggregation

class dad
class son

dad <|- - son
@enduml

PlantUML version 1.2022.7beta2(Unknown compile time)
(GPL source distribution)
Java Runtime: Java(TM) SE Runtime Environment
JVM: Java HotSpot(TM) 64-Bit Server VM
Default Encoding: UTF-8
Language: en
Country: US
--></g></svg>