<?xml version="1.0" encoding="UTF-8" standalone="no"?><svg xmlns="http://www.w3.org/2000/svg" xmlns:xlink="http://www.w3.org/1999/xlink" contentStyleType="text/css" height="207px" preserveAspectRatio="none" style="width:130px;height:207px;background:#FFFFFF;" version="1.1" viewBox="0 0 130 207" width="130px" zoomAndPan="magnify"><defs/><g><rect height="26.2969" id="_title" style="stroke:#00000000;stroke-width:1.0;fill:none;" width="112" x="5" y="5"/><text fill="#000000" font-family="sans-serif" font-size="14" font-weight="bold" lengthAdjust="spacing" textLength="102" x="10" y="22.9951">Composition</text><!--MD5=[e30d85f06ce1537c45f1fe5f30e06a16]
class prec--><g id="elem_prec"><rect codeLine="3" fill="#F1F1F1" height="48" id="prec" rx="2.5" ry="2.5" style="stroke:#181818;stroke-width:0.5;" width="65" x="35.5" y="44.2969"/><ellipse cx="50.5" cy="60.2969" fill="#ADD1B2" rx="11" ry="11" style="stroke:#181818;stroke-width:1.0;"/><path d="M52.8438,55.9688 C51.9063,55.5313 51.3125,55.3906 50.4375,55.3906 C47.8125,55.3906 45.8125,57.4688 45.8125,60.1875 L45.8125,61.3125 C45.8125,63.8906 47.9219,65.7813 50.8125,65.7813 C52.0313,65.7813 53.1875,65.4844 53.9375,64.9375 C54.5156,64.5313 54.8438,64.0781 54.8438,63.6875 C54.8438,63.2344 54.4531,62.8438 53.9844,62.8438 C53.7656,62.8438 53.5625,62.9219 53.375,63.1094 C52.9219,63.5938 52.9219,63.5938 52.7344,63.6875 C52.3125,63.9531 51.625,64.0781 50.8594,64.0781 C48.8125,64.0781 47.5156,62.9844 47.5156,61.2813 L47.5156,60.1875 C47.5156,58.4063 48.7656,57.0938 50.5,57.0938 C51.0781,57.0938 51.6875,57.25 52.1563,57.5 C52.6406,57.7813 52.8125,58 52.9063,58.4063 C52.9688,58.8125 53,58.9375 53.1406,59.0625 C53.2813,59.2031 53.5156,59.3125 53.7344,59.3125 C54,59.3125 54.2656,59.1719 54.4375,58.9531 C54.5469,58.7969 54.5781,58.6094 54.5781,58.1875 L54.5781,56.7656 C54.5781,56.3281 54.5625,56.2031 54.4688,56.0469 C54.3125,55.7813 54.0313,55.6406 53.7344,55.6406 C53.4375,55.6406 53.2344,55.7344 53.0156,56.0469 L52.8438,55.9688 Z " fill="#000000"/><text fill="#000000" font-family="sans-serif" font-size="14" lengthAdjust="spacing" textLength="33" x="64.5" y="65.1436">prec</text><line style="stroke:#181818;stroke-width:0.5;" x1="36.5" x2="99.5" y1="76.2969" y2="76.2969"/><line style="stroke:#181818;stroke-width:0.5;" x1="36.5" x2="99.5" y1="84.2969" y2="84.2969"/></g><!--MD5=[1eb608b7f35114e568597dbdfb2439bb]
class succ--><g id="elem_succ"><rect codeLine="4" fill="#F1F1F1" height="48" id="succ" rx="2.5" ry="2.5" style="stroke:#181818;stroke-width:0.5;" width="63" x="36.5" y="152.2969"/><ellipse cx="51.5" cy="168.2969" fill="#ADD1B2" rx="11" ry="11" style="stroke:#181818;stroke-width:1.0;"/><path d="M53.8438,163.9688 C52.9063,163.5313 52.3125,163.3906 51.4375,163.3906 C48.8125,163.3906 46.8125,165.4688 46.8125,168.1875 L46.8125,169.3125 C46.8125,171.8906 48.9219,173.7813 51.8125,173.7813 C53.0313,173.7813 54.1875,173.4844 54.9375,172.9375 C55.5156,172.5313 55.8438,172.0781 55.8438,171.6875 C55.8438,171.2344 55.4531,170.8438 54.9844,170.8438 C54.7656,170.8438 54.5625,170.9219 54.375,171.1094 C53.9219,171.5938 53.9219,171.5938 53.7344,171.6875 C53.3125,171.9531 52.625,172.0781 51.8594,172.0781 C49.8125,172.0781 48.5156,170.9844 48.5156,169.2813 L48.5156,168.1875 C48.5156,166.4063 49.7656,165.0938 51.5,165.0938 C52.0781,165.0938 52.6875,165.25 53.1563,165.5 C53.6406,165.7813 53.8125,166 53.9063,166.4063 C53.9688,166.8125 54,166.9375 54.1406,167.0625 C54.2813,167.2031 54.5156,167.3125 54.7344,167.3125 C55,167.3125 55.2656,167.1719 55.4375,166.9531 C55.5469,166.7969 55.5781,166.6094 55.5781,166.1875 L55.5781,164.7656 C55.5781,164.3281 55.5625,164.2031 55.4688,164.0469 C55.3125,163.7813 55.0313,163.6406 54.7344,163.6406 C54.4375,163.6406 54.2344,163.7344 54.0156,164.0469 L53.8438,163.9688 Z " fill="#000000"/><text fill="#000000" font-family="sans-serif" font-size="14" lengthAdjust="spacing" textLength="31" x="65.5" y="173.1436">succ</text><line style="stroke:#181818;stroke-width:0.5;" x1="37.5" x2="98.5" y1="184.2969" y2="184.2969"/><line style="stroke:#181818;stroke-width:0.5;" x1="37.5" x2="98.5" y1="192.2969" y2="192.2969"/></g><!--MD5=[eea678f6a19fce13a65e6c015dea54a6]
reverse link prec to succ--><g id="link_prec_succ"><path codeLine="6" d="M68,105.6352 C68,120.9782 68,138.3949 68,151.9753 " fill="none" id="prec-backto-succ" style="stroke:#181818;stroke-width:1.0;"/><polygon fill="#181818" points="68,92.2969,64,98.2969,68,104.2969,72,98.2969,68,92.2969" style="stroke:#181818;stroke-width:1.0;"/></g><!--MD5=[57f97a197a1638a50a754dcb51133178]
@startuml
title Composition

class prec
class succ

prec *- - succ
@enduml

PlantUML version 1.2022.7beta2(Unknown compile time)
(GPL source distribution)
Java Runtime: Java(TM) SE Runtime Environment
JVM: Java HotSpot(TM) 64-Bit Server VM
Default Encoding: UTF-8
Language: en
Country: US
--></g></svg>